<?xml version="1.0" encoding="utf-8"?>
<!-- Generator: Adobe Illustrator 16.0.3, SVG Export Plug-In . SVG Version: 6.00 Build 0)  -->
<!DOCTYPE svg PUBLIC "-//W3C//DTD SVG 1.1//EN" "http://www.w3.org/Graphics/SVG/1.1/DTD/svg11.dtd">
<svg version="1.1" id="Layer_1" xmlns="http://www.w3.org/2000/svg" xmlns:xlink="http://www.w3.org/1999/xlink" x="0px" y="0px"
	 width="458px" height="196.666px" viewBox="0 0 458 196.666" enable-background="new 0 0 458 196.666" xml:space="preserve">
<g>
	<path fill-rule="evenodd" clip-rule="evenodd" fill="#BAB6AD" d="M17.122,140.381c0.007,3.041,2.347,5.398,5.392,5.398
		l32.904-0.035c2.681,0.011,4.865-2.154,4.857-4.89c0-2.688-2.165-4.825-4.879-4.844l-27.586,0.019l-0.018-51.263
		c-0.018-2.956-2.365-5.32-5.349-5.327c-3.02,0.007-5.374,2.364-5.377,5.32L17.122,140.381"/>
	<path fill-rule="evenodd" clip-rule="evenodd" fill="#BAB6AD" d="M70.346,140.954c0.018,2.963,2.365,5.214,5.239,5.225
		c2.952-0.011,5.307-2.275,5.282-5.225l-0.004-36.386c-0.01-2.956-2.354-5.311-5.338-5.311c-2.932,0.011-5.204,2.351-5.2,5.311
		L70.346,140.954"/>
	<path fill-rule="evenodd" clip-rule="evenodd" fill="#BAB6AD" d="M119.771,141.951l15.281-35.146
		c0.267-0.523,0.634-1.592,0.624-2.521c-0.014-2.892-2.272-5.079-5.153-5.054c-2.782,0.011-4.185,1.816-4.95,3.653l-11.977,30.643
		l-11.873-30.453c-0.869-2.176-2.358-3.825-5.214-3.828c-2.885,0.014-5.253,2.45-5.218,5.046c0,0.954,0.356,1.838,0.599,2.614
		l15.346,35.064c1.211,2.781,3.112,4.615,6.004,4.599l0.523-0.004C116.644,146.57,118.553,144.658,119.771,141.951"/>
	<path fill-rule="evenodd" clip-rule="evenodd" fill="#BAB6AD" d="M151.773,119.486c0.951-7.133,5.481-12.094,11.902-12.105
		c6.966,0.004,10.987,5.307,11.685,12.095L151.773,119.486 M181.471,140.602c0.791-0.755,1.375-1.909,1.389-3.205
		c-0.032-2.437-1.845-4.267-4.209-4.26c-1.208-0.014-1.898,0.353-2.678,0.947c-2.941,2.439-6.439,4.014-10.869,4.018
		c-6.795,0.011-12.083-4.17-13.237-11.667l28.779-0.004c2.724,0,4.964-2.097,4.982-5.054c-0.018-10.612-7.24-22.628-21.859-22.61
		c-13.138,0.004-22.418,10.826-22.444,23.943l0.003,0.191c0.004,14.153,10.296,23.829,23.612,23.822
		C172.062,146.713,177.297,144.359,181.471,140.602"/>
	<path fill-rule="evenodd" clip-rule="evenodd" fill="#F7CC15" d="M252.779,146.656c18.736-0.015,31.932-14.363,31.921-31.515
		l-0.011-0.195c0-17.145-13.057-31.319-31.785-31.298c-18.69,0.025-31.935,14.392-31.902,31.54l-0.007,0.163
		C220.995,132.499,234.051,146.674,252.779,146.656 M252.958,136.734c-12.112,0.014-20.717-9.733-20.721-21.554l-0.018-0.182
		c-0.003-11.845,8.438-21.51,20.527-21.528c12.08,0,20.699,9.836,20.717,21.678l0.004,0.168
		C273.479,127.147,265.049,136.734,252.958,136.734"/>
	<path fill-rule="evenodd" clip-rule="evenodd" fill="#F7CC15" d="M296.441,140.805c-0.021,2.956,2.358,5.214,5.221,5.217
		c2.956,0,5.296-2.265,5.303-5.249l-0.018-21.122c-0.024-7.151,4.245-11.407,10.335-11.421c6.279,0.014,9.841,4.085,9.858,11.207
		l0.007,21.336c0.007,2.956,2.354,5.225,5.303,5.21c2.971-0.01,5.235-2.275,5.218-5.217l-0.008-24.552
		c0-10.592-6.015-17.543-16.356-17.543c-7.158,0.003-11.4,3.739-14.367,7.983l0.004-2.243c-0.004-2.959-2.354-5.316-5.327-5.313
		c-2.953,0.011-5.218,2.361-5.211,5.324L296.441,140.805"/>
	<g>
		<path fill-rule="evenodd" clip-rule="evenodd" fill="#FBC911" d="M78.929,84.059c-2.361,2.062-5.944,1.826-8.009-0.542
			c-2.059-2.375-1.806-5.962,0.559-8.03c2.372-2.073,5.958-1.834,8.017,0.552C81.564,78.414,81.297,81.989,78.929,84.059"/>
		<path fill-rule="evenodd" clip-rule="evenodd" fill="#FBC911" d="M78.462,67.373c-1.485-2.4-0.755-5.549,1.649-7.037
			c2.4-1.514,5.548-0.776,7.051,1.603c1.51,2.404,0.773,5.577-1.635,7.076C83.142,70.5,79.979,69.773,78.462,67.373"/>
		<path fill-rule="evenodd" clip-rule="evenodd" fill="#FBC911" d="M88.645,52.758c-0.937-2.351,0.175-4.986,2.515-5.927
			c2.343-0.946,4.989,0.203,5.918,2.508c0.944,2.318-0.167,4.961-2.503,5.919C92.245,56.205,89.592,55.091,88.645,52.758"/>
		<path fill-rule="evenodd" clip-rule="evenodd" fill="#FBC911" d="M101.173,40.2c-0.481-2.137,0.848-4.288,2.978-4.786
			c2.147-0.47,4.284,0.844,4.765,2.995c0.51,2.154-0.815,4.28-2.966,4.769C103.809,43.684,101.665,42.341,101.173,40.2"/>
		<path fill-rule="evenodd" clip-rule="evenodd" fill="#FBC911" d="M115.636,29.976c-0.104-1.891,1.339-3.508,3.233-3.597
			c1.876-0.086,3.479,1.335,3.601,3.223c0.078,1.881-1.35,3.49-3.258,3.597C117.349,33.28,115.743,31.853,115.636,29.976"/>
		<path fill-rule="evenodd" clip-rule="evenodd" fill="#FBC911" d="M131.616,22.447c0.199-1.578,1.599-2.675,3.166-2.482
			c1.567,0.203,2.667,1.603,2.503,3.155c-0.213,1.56-1.609,2.675-3.191,2.479C132.556,25.396,131.427,23.996,131.616,22.447"/>
		<path fill-rule="evenodd" clip-rule="evenodd" fill="#FBC911" d="M148.094,17.65c0.452-1.507,2.051-2.348,3.554-1.867
			c1.502,0.46,2.34,2.034,1.884,3.555c-0.463,1.478-2.048,2.329-3.551,1.873C148.504,20.759,147.627,19.167,148.094,17.65"/>
		<path fill-rule="evenodd" clip-rule="evenodd" fill="#FBC911" d="M165.125,15.723c0.716-1.399,2.439-1.947,3.842-1.239
			c1.386,0.698,1.927,2.408,1.236,3.79c-0.712,1.428-2.418,1.987-3.84,1.268C164.989,18.821,164.423,17.105,165.125,15.723"/>
		<path fill-rule="evenodd" clip-rule="evenodd" fill="#FBC911" d="M182.279,16.652c0.94-1.246,2.699-1.51,3.971-0.548
			c1.25,0.947,1.503,2.714,0.559,3.975c-0.944,1.253-2.743,1.499-3.957,0.583C181.563,19.701,181.335,17.935,182.279,16.652"/>
		<path fill-rule="evenodd" clip-rule="evenodd" fill="#FBC911" d="M198.986,20.484c1.128-1.061,2.948-1,4.017,0.136
			c1.083,1.157,1.011,2.956-0.121,4.038c-1.165,1.068-2.942,1.005-4.032-0.167C197.782,23.358,197.839,21.567,198.986,20.484"/>
		<path fill-rule="evenodd" clip-rule="evenodd" fill="#FBC911" d="M214.776,27.123c1.325-0.848,3.052-0.523,3.936,0.77
			c0.894,1.311,0.559,3.056-0.741,3.953c-1.296,0.883-3.077,0.552-3.964-0.741C213.131,29.772,213.466,28.014,214.776,27.123"/>
		<path fill-rule="evenodd" clip-rule="evenodd" fill="#FBC911" d="M229.271,36.326c1.438-0.656,3.115-0.019,3.761,1.438
			c0.645,1.417,0,3.112-1.442,3.735c-1.439,0.648-3.127,0.008-3.736-1.432C227.199,38.651,227.85,36.952,229.271,36.326"/>
		<path fill-rule="evenodd" clip-rule="evenodd" fill="#FBC911" d="M242.028,47.821c1.51-0.385,3.069,0.524,3.443,2.059
			c0.374,1.524-0.569,3.056-2.069,3.426c-1.535,0.399-3.073-0.537-3.469-2.058C239.57,49.724,240.507,48.178,242.028,47.821"/>
		<path fill-rule="evenodd" clip-rule="evenodd" fill="#FBC911" d="M426.808,83.813c2.358,2.08,5.955,1.806,8.014-0.556
			c2.055-2.361,1.806-5.969-0.581-8.013c-2.364-2.063-5.933-1.803-8.009,0.576C424.169,78.175,424.419,81.782,426.808,83.813"/>
		<path fill-rule="evenodd" clip-rule="evenodd" fill="#FBC911" d="M427.239,67.124c1.499-2.396,0.744-5.545-1.639-7.048
			c-2.396-1.492-5.563-0.755-7.055,1.627c-1.503,2.404-0.772,5.581,1.624,7.077C422.57,70.255,425.74,69.531,427.239,67.124"/>
		<path fill-rule="evenodd" clip-rule="evenodd" fill="#FBC911" d="M417.061,52.509c0.912-2.322-0.206-4.954-2.535-5.898
			c-2.326-0.947-4.982,0.2-5.938,2.511c-0.926,2.333,0.189,4.997,2.536,5.916C413.449,55.974,416.103,54.849,417.061,52.509"/>
		<path fill-rule="evenodd" clip-rule="evenodd" fill="#FBC911" d="M404.503,39.986c0.492-2.137-0.833-4.277-2.987-4.769
			c-2.158-0.502-4.288,0.834-4.786,2.974c-0.484,2.145,0.851,4.284,2.97,4.766C401.864,43.487,403.983,42.127,404.503,39.986"/>
		<path fill-rule="evenodd" clip-rule="evenodd" fill="#FBC911" d="M390.03,29.772c0.093-1.877-1.357-3.497-3.248-3.597
			c-1.87-0.089-3.483,1.367-3.579,3.252c-0.107,1.866,1.363,3.5,3.237,3.582C388.316,33.105,389.909,31.656,390.03,29.772"/>
		<path fill-rule="evenodd" clip-rule="evenodd" fill="#FBC911" d="M374.019,22.258c-0.203-1.552-1.6-2.656-3.184-2.479
			c-1.543,0.207-2.65,1.621-2.461,3.17c0.188,1.577,1.616,2.682,3.19,2.485C373.11,25.253,374.207,23.829,374.019,22.258"/>
		<path fill-rule="evenodd" clip-rule="evenodd" fill="#FBC911" d="M357.547,17.521c-0.463-1.503-2.048-2.336-3.568-1.895
			c-1.485,0.467-2.325,2.059-1.884,3.558c0.495,1.499,2.073,2.347,3.54,1.877C357.138,20.609,357.996,19.035,357.547,17.521"/>
		<path fill-rule="evenodd" clip-rule="evenodd" fill="#FBC911" d="M340.499,15.588c-0.713-1.382-2.404-1.941-3.839-1.239
			c-1.39,0.708-1.938,2.425-1.215,3.824c0.705,1.414,2.422,1.941,3.814,1.24C340.681,18.697,341.215,16.987,340.499,15.588"/>
		<path fill-rule="evenodd" clip-rule="evenodd" fill="#FBC911" d="M323.38,16.553c-0.944-1.254-2.729-1.478-3.981-0.534
			c-1.261,0.947-1.511,2.714-0.56,3.979c0.94,1.25,2.725,1.503,3.975,0.563C324.06,19.587,324.31,17.842,323.38,16.553"/>
		<path fill-rule="evenodd" clip-rule="evenodd" fill="#FBC911" d="M306.645,20.432c-1.157-1.079-2.955-1.008-3.996,0.149
			c-1.075,1.132-1.021,2.92,0.121,4.014c1.147,1.071,2.96,1.004,4.025-0.143C307.87,23.284,307.82,21.496,306.645,20.432"/>
		<path fill-rule="evenodd" clip-rule="evenodd" fill="#FBC911" d="M290.861,27.102c-1.279-0.883-3.074-0.548-3.946,0.733
			c-0.887,1.332-0.541,3.077,0.779,3.961c1.308,0.887,3.056,0.548,3.933-0.77C292.524,29.73,292.189,27.956,290.861,27.102"/>
		<path fill-rule="evenodd" clip-rule="evenodd" fill="#FBC911" d="M276.395,36.308c-1.445-0.662-3.108-0.014-3.761,1.417
			c-0.627,1.461,0.008,3.12,1.449,3.754c1.407,0.642,3.103,0.004,3.747-1.424C278.489,38.602,277.819,36.938,276.395,36.308"/>
		<path fill-rule="evenodd" clip-rule="evenodd" fill="#FBC911" d="M263.663,47.782c-1.531-0.378-3.056,0.556-3.43,2.073
			c-0.389,1.527,0.538,3.065,2.052,3.458c1.523,0.388,3.076-0.549,3.447-2.087C266.109,49.709,265.205,48.152,263.663,47.782"/>
		<path fill-rule="evenodd" clip-rule="evenodd" fill="#FBC911" d="M255.664,64.36c0.16-1.581-0.986-2.945-2.582-3.091
			c-1.549-0.143-2.927,1.015-3.069,2.574c-0.125,1.585,1.032,2.952,2.581,3.088C254.176,67.07,255.547,65.913,255.664,64.36"/>
	</g>
	<path fill-rule="evenodd" clip-rule="evenodd" fill="#BAB6AD" d="M224.046,179.143c0.007,0.595,0.499,1.058,1.029,1.047
		l5.353,0.028c5.794-0.046,9.762-4.046,9.754-9.21v-0.06c-0.01-5.168-3.988-9.153-9.754-9.139l-5.371,0.003
		c-0.538,0.004-1.026,0.471-1.012,1.062V179.143 M226.13,178.288l-0.01-14.56l4.294-0.003c4.647-0.015,7.618,3.212,7.625,7.261
		l0.004,0.064c-0.011,4.078-2.967,7.229-7.614,7.233L226.13,178.288z"/>
	<path fill-rule="evenodd" clip-rule="evenodd" fill="#BAB6AD" d="M250.433,180.517c4.092-0.018,7.115-3.269,7.133-7.104
		l-0.018-0.054c0-3.843-3.02-7.04-7.065-7.029c-4.113,0.007-7.102,3.269-7.076,7.083l-0.007,0.05
		C243.392,177.305,246.362,180.496,250.433,180.517 M250.493,178.676c-2.892,0.011-5.028-2.364-5.043-5.271l0.007-0.058
		c-0.007-2.849,2.02-5.231,4.982-5.242c2.85,0.011,5.036,2.394,5.025,5.303l-0.004,0.051
		C255.465,176.314,253.442,178.693,250.493,178.676"/>
	<path fill-rule="evenodd" clip-rule="evenodd" fill="#BAB6AD" d="M261.188,179.281c-0.022,0.584,0.441,1.025,1.039,1.036
		c0.577-0.007,0.983-0.452,0.997-1.032l-0.003-6.885c0.003-2.563,1.713-4.27,4.053-4.252c2.4-0.018,3.765,1.578,3.765,4.078
		l0.014,7.048c-0.011,0.587,0.431,1.022,1.019,1.015c0.541-0.007,1.005-0.445,0.997-1.004l0.025-7.547
		c-0.043-3.223-1.945-5.42-5.253-5.424c-2.315,0.011-3.736,1.168-4.645,2.639l0.015-1.463c0.004-0.588-0.46-1.026-1.033-1.026
		c-0.541,0-0.993,0.467-0.989,1.026V179.281"/>
	<path fill-rule="evenodd" clip-rule="evenodd" fill="#BAB6AD" d="M281.431,180.442c2.372,0.018,3.942-1.094,4.9-2.354l-0.015,1.265
		c0.008,0.502,0.403,0.93,0.983,0.926c0.541,0.004,0.954-0.413,0.958-0.972l-0.004-7.447c0.015-1.724-0.463-3.06-1.382-3.953
		c-1.008-1.025-2.464-1.527-4.391-1.507c-1.738-0.007-3.103,0.343-4.431,0.919l-0.552,0.834c-0.015,0.48,0.424,0.883,0.897,0.865
		l0.356-0.075c1.004-0.441,2.157-0.769,3.518-0.758c2.568,0,4.035,1.242,4.035,3.692l0.029,0.495
		c-1.229-0.338-2.472-0.595-4.192-0.595c-3.451,0.004-5.809,1.542-5.809,4.395l-0.007,0.054
		C276.345,179.011,278.892,180.468,281.431,180.442 M281.809,178.847c-1.842,0-3.434-0.993-3.434-2.703l0.007-0.053
		c0.008-1.695,1.432-2.811,3.961-2.828c1.666,0.018,3.005,0.288,4.014,0.595l0.01,1.311
		C286.338,177.326,284.287,178.847,281.809,178.847"/>
	<path fill-rule="evenodd" clip-rule="evenodd" fill="#BAB6AD" d="M295.926,180.396c0.765,0,1.402-0.149,1.979-0.395l0.58-0.759
		c0-0.48-0.392-0.861-0.844-0.876c-0.167,0-0.526,0.196-1.232,0.196c-1.389-0.008-2.297-0.617-2.297-2.27v-7.92l3.522-0.007
		c0.474-0.008,0.919-0.399,0.891-0.912c-0.004-0.449-0.417-0.89-0.891-0.883l-3.529,0.007l-0.011-3.223
		c0.011-0.531-0.463-1.001-1.015-0.998c-0.595-0.003-1.001,0.467-1.001,1.005l0.015,13.181
		C292.104,179.32,293.753,180.406,295.926,180.396"/>
	<path fill-rule="evenodd" clip-rule="evenodd" fill="#BAB6AD" d="M301.958,162.653c0.004,0.648,0.552,1.083,1.187,1.075
		c0.688,0.025,1.218-0.438,1.239-1.071l-0.025-0.332c0-0.662-0.552-1.1-1.218-1.082c-0.651-0.014-1.164,0.402-1.164,1.075
		L301.958,162.653 M302.165,179.249c0,0.577,0.459,1.029,1.025,1.026c0.584,0,0.993-0.453,0.982-1.012l-0.007-11.816
		c0.007-0.549-0.438-1.025-1.004-0.997c-0.556-0.028-1.001,0.452-1.005,1.004L302.165,179.249z"/>
	<path fill-rule="evenodd" clip-rule="evenodd" fill="#BAB6AD" d="M315.067,180.46c4.121-0.004,7.115-3.259,7.13-7.102l-0.025-0.061
		c0.011-3.85-2.97-7.026-7.059-7.019c-4.088,0.014-7.087,3.255-7.098,7.076l-0.007,0.05
		C308.023,177.251,311.004,180.446,315.067,180.46 M315.128,178.622c-2.863,0.028-5.011-2.35-5.032-5.277l0.004-0.043
		c0.024-2.853,2.033-5.231,4.961-5.253c2.87,0.018,5.05,2.396,5.071,5.31l-0.011,0.054
		C320.121,176.258,318.069,178.645,315.128,178.622"/>
	<path fill-rule="evenodd" clip-rule="evenodd" fill="#BAB6AD" d="M325.841,179.242c0,0.584,0.445,1.025,1.028,1.015
		c0.577,0.011,0.994-0.438,0.987-1.025l-0.011-6.892c-0.011-2.521,1.748-4.23,4.07-4.241c2.396-0.007,3.758,1.578,3.758,4.103
		l-0.008,7.02c0.029,0.595,0.456,1.051,1.047,1.025c0.542-0.014,1.005-0.455,0.983-1l0.024-7.547
		c-0.018-3.227-1.94-5.431-5.217-5.441c-2.344,0.021-3.797,1.164-4.637,2.653l-0.015-1.472c-0.007-0.587-0.452-1.018-1.032-1.018
		c-0.563,0.01-1.001,0.466-0.99,1.025L325.841,179.242"/>
	<path fill-rule="evenodd" clip-rule="evenodd" fill="#BAB6AD" d="M24.483,180.606c3.65,0.018,6.29-2.048,6.254-5.2l0.007-0.046
		c0.014-2.799-1.863-4.323-5.973-5.199c-4.039-0.869-5.007-1.859-4.997-3.58l0.003-0.042c-0.011-1.681,1.521-2.974,3.907-2.981
		c1.717-0.007,3.209,0.478,4.762,1.606l0.602,0.192c0.556-0.007,0.979-0.478,0.99-1.011l-0.434-0.83
		c-1.681-1.207-3.455-1.831-5.845-1.813c-3.504,0.015-6.047,2.134-6.065,5.004l-0.003,0.043c0,3.052,1.959,4.427,6.193,5.313
		c3.867,0.822,4.776,1.795,4.776,3.504l-0.007,0.064c0.007,1.806-1.617,3.109-4.074,3.116c-2.326-0.007-4.078-0.709-5.826-2.184
		l-0.631-0.224c-0.541,0.003-0.986,0.448-0.997,0.997l0.388,0.809C19.579,179.772,21.798,180.624,24.483,180.606"/>
	<path fill-rule="evenodd" clip-rule="evenodd" fill="#BAB6AD" d="M46.282,167.653c-0.007-0.591-0.448-1.04-1.011-1.047
		c-0.591,0.028-0.983,0.438-1.004,1.033l0.025,6.891c-0.021,2.554-1.77,4.245-4.074,4.245c-2.404,0.011-3.75-1.581-3.76-4.088
		l0.01-7.027c-0.018-0.608-0.484-1.039-1.043-1.028c-0.57-0.015-0.986,0.441-1,1.021l0.011,7.525
		c0.003,3.233,1.909,5.449,5.185,5.459c2.357-0.028,3.757-1.21,4.651-2.685v1.478c0.011,0.584,0.453,1.008,1.022,1.029
		c0.57-0.014,0.986-0.478,0.997-1.019L46.282,167.653"/>
	<path fill-rule="evenodd" clip-rule="evenodd" fill="#BAB6AD" d="M50.816,183.641c0.011,0.549,0.438,1.011,1.029,1.025
		c0.587-0.004,0.976-0.452,0.994-1.047l0.011-5.884c1.04,1.492,2.671,2.885,5.188,2.864c3.273,0.021,6.471-2.622,6.482-7.056
		l-0.011-0.05c0.007-4.487-3.234-7.037-6.503-7.016c-2.475-0.019-4.085,1.378-5.185,2.987l0.01-1.841
		c-0.018-0.57-0.427-1.015-1.04-1.019c-0.548-0.007-0.961,0.463-0.986,1.012L50.816,183.641 M57.689,178.794
		c-2.557,0.01-4.918-2.088-4.939-5.232v-0.061c0.004-3.116,2.404-5.228,4.904-5.249c2.564,0.021,4.779,2.076,4.797,5.264
		l-0.003,0.05C62.433,176.846,60.307,178.794,57.689,178.794"/>
	<path fill-rule="evenodd" clip-rule="evenodd" fill="#BAB6AD" d="M68.252,183.619c0.011,0.591,0.453,1.019,1.044,1.022
		c0.538,0,0.993-0.442,0.993-1.026l-0.014-5.897c1.055,1.51,2.675,2.889,5.192,2.871c3.27,0.014,6.493-2.632,6.489-7.06l-0.003-0.05
		c0-4.462-3.234-7.037-6.507-7.022c-2.475-0.011-4.092,1.367-5.189,3.017l0.011-1.855c-0.003-0.57-0.449-1.005-1.019-0.997
		c-0.563-0.015-1.004,0.434-1.004,0.99L68.252,183.619 M75.112,178.772c-2.54,0-4.943-2.087-4.926-5.253l-0.014-0.058
		c0.011-3.102,2.393-5.21,4.929-5.225c2.564,0.025,4.769,2.069,4.769,5.271l-0.004,0.043
		C79.884,176.835,77.715,178.772,75.112,178.772"/>
	<path fill-rule="evenodd" clip-rule="evenodd" fill="#BAB6AD" d="M91.875,180.62c4.109-0.014,7.097-3.259,7.119-7.101l-0.01-0.054
		c-0.014-3.843-2.985-7.034-7.073-7.023c-4.106,0-7.08,3.273-7.08,7.077l-0.007,0.053C84.83,177.415,87.804,180.606,91.875,180.62
		 M91.924,178.786c-2.867,0.024-5.032-2.332-5.032-5.267l-0.007-0.061c0.014-2.85,2.026-5.232,4.997-5.232
		c2.849,0,5.036,2.379,5.025,5.303l0.011,0.058C96.928,176.436,94.863,178.814,91.924,178.786"/>
	<path fill-rule="evenodd" clip-rule="evenodd" fill="#BAB6AD" d="M102.63,179.409c0.011,0.573,0.459,1.016,1.015,1.019
		c0.573-0.01,1.011-0.477,1.015-1.043l0.011-4.608c0.007-3.921,2.133-5.876,4.769-6.204c0.516-0.085,0.879-0.452,0.89-1.019
		c-0.011-0.591-0.417-1.051-1.008-1.019c-1.73-0.011-3.65,1.347-4.665,3.615l0.018-2.547c-0.028-0.58-0.48-1.025-1.04-1.025
		c-0.556,0-0.998,0.477-1,1.029L102.63,179.409"/>
	<path fill-rule="evenodd" clip-rule="evenodd" fill="#BAB6AD" d="M117.11,180.514c0.794,0.003,1.4-0.146,1.991-0.353l0.57-0.805
		c-0.007-0.488-0.384-0.852-0.858-0.865c-0.178-0.012-0.516,0.185-1.239,0.195c-1.356,0.004-2.283-0.62-2.279-2.269l-0.021-7.921
		l3.54-0.003c0.488-0.021,0.908-0.402,0.922-0.908c-0.021-0.46-0.448-0.897-0.961-0.894l-3.5,0.014v-3.198
		c-0.014-0.566-0.467-1.043-1.019-1.032c-0.57-0.004-1.008,0.474-1.008,1.008l0.025,13.202
		C113.271,179.435,114.902,180.514,117.11,180.514"/>
	<path fill-rule="evenodd" clip-rule="evenodd" fill="#BAB6AD" d="M142.556,180.57c5.595,0.025,9.405-4.423,9.391-9.516l0.011-0.057
		c-0.021-5.036-3.771-9.448-9.338-9.435c-5.624,0.007-9.409,4.463-9.416,9.502l-0.011,0.054
		C133.197,176.208,136.968,180.577,142.556,180.57 M142.627,178.658c-4.216,0.021-7.268-3.401-7.268-7.586l-0.018-0.057
		c0.007-4.156,2.995-7.554,7.205-7.536c4.202,0,7.262,3.419,7.258,7.582l-0.01,0.054
		C149.817,175.307,146.805,178.661,142.627,178.658"/>
	<path fill-rule="evenodd" clip-rule="evenodd" fill="#BAB6AD" d="M155.989,179.356c-0.007,0.577,0.452,1.021,1.037,1.021
		c0.573-0.003,1-0.47,0.99-1.036v-4.612c-0.021-3.889,2.151-5.887,4.769-6.2c0.527-0.085,0.897-0.459,0.897-1.029
		c0.007-0.58-0.403-1.015-0.998-1.015c-1.699-0.007-3.682,1.368-4.668,3.629l-0.004-2.563c-0.01-0.557-0.445-1.019-1.029-1.022
		c-0.549,0.004-0.994,0.477-0.994,1.036V179.356"/>
	<path fill-rule="evenodd" clip-rule="evenodd" fill="#BAB6AD" d="M172.069,184.484c2.151,0.015,3.982-0.605,5.178-1.795
		c1.125-1.104,1.724-2.714,1.742-4.829l-0.021-10.313c-0.011-0.542-0.452-1.008-0.994-0.997c-0.595-0.008-1.033,0.463-1.019,0.997
		l-0.007,1.549c-1.101-1.467-2.746-2.717-5.307-2.728c-3.233,0.024-6.386,2.457-6.368,6.406l0.021,0.054
		c0,3.921,3.095,6.35,6.378,6.371c2.485-0.021,4.138-1.303,5.299-2.885l0.011,1.606c0.011,3.173-1.941,4.814-4.922,4.826
		c-1.777,0.011-3.394-0.51-4.811-1.454l-0.459-0.128l-0.908,0.887l0.517,0.834C168.102,183.943,170.003,184.502,172.069,184.484
		 M172.037,177.415c-2.482-0.018-4.687-1.898-4.701-4.641l0.003-0.021c0.007-2.813,2.119-4.597,4.715-4.597
		c2.568-0.004,4.982,1.802,4.979,4.607l0.007,0.05C177.03,175.538,174.612,177.415,172.037,177.415"/>
	<path fill-rule="evenodd" clip-rule="evenodd" fill="#BAB6AD" d="M187.521,180.503c2.415,0,3.978-1.09,4.929-2.34l-0.011,1.257
		c0.015,0.514,0.392,0.934,0.969,0.934c0.566-0.004,0.969-0.424,0.969-0.983l-0.011-7.45c0.011-1.72-0.448-3.038-1.367-3.978
		c-1.019-1.005-2.493-1.489-4.409-1.482c-1.73,0-3.084,0.35-4.441,0.934l-0.538,0.819c0.014,0.484,0.423,0.897,0.89,0.879
		l0.363-0.082c1.011-0.444,2.158-0.765,3.537-0.762c2.543,0.025,4.031,1.247,4.038,3.7l-0.007,0.471
		c-1.193-0.346-2.446-0.581-4.156-0.584c-3.443,0.021-5.819,1.531-5.808,4.408l-0.011,0.064
		C182.468,179.078,185.029,180.531,187.521,180.503 M187.917,178.903c-1.806,0.025-3.408-0.993-3.401-2.688l0.007-0.05
		c0-1.717,1.417-2.81,3.942-2.835c1.667,0.025,3.006,0.307,4,0.566v1.339C192.472,177.397,190.431,178.915,187.917,178.903"/>
	<path fill-rule="evenodd" clip-rule="evenodd" fill="#BAB6AD" d="M198.687,179.31c0.007,0.584,0.459,1.029,1.033,1.04
		c0.584-0.011,0.994-0.452,1-1.04l-0.028-6.855c0.028-2.554,1.73-4.27,4.067-4.284c2.417,0.025,3.774,1.578,3.792,4.113v7.041
		c-0.025,0.584,0.428,1.015,1.008,1.015c0.542,0,0.997-0.435,1.015-1.025l-0.028-7.55c0.025-3.227-1.913-5.413-5.196-5.406
		c-2.347-0.011-3.757,1.179-4.655,2.652v-1.502c0.011-0.545-0.427-1.016-1-1.016c-0.57,0.028-1.026,0.471-1.022,1.037
		L198.687,179.31"/>
</g>
</svg>
